{"title":"Cars.2006.720p.BRRip.XviD.AC3-PsychoLogic","uid":6586555,"size":3043728920,"categoryP":"video","categoryS":"hd___movies","magnet":"?xt=urn:btih:715a4d3092752c37befc31bad5b119067f0a9b28&amp;dn=Cars.2006.720p.BRRip.XviD.AC3-PsychoLogic&amp;tr=udp%3A%2F%2Ftracker.openbittorrent.com%3A80&amp;tr=udp%3A%2F%2Fopen.demonii.com%3A1337&amp;tr=udp%3A%2F%2Ftracker.coppersurfer.tk%3A6969&amp;tr=udp%3A%2F%2Fexodus.desync.com%3A6969","seeders":1,"leechers":0,"uploader":"PsychoLogic","files":19,"time":1312631603,"description":"Release Information:\n\nCars.2006.720p.BRRip.XviD.AC3-PsychoLogic\n\nSource                           : Cars.2006.720p.BluRay.X264-REVEiLLE\nSubtitles                        : Arabic, Bulgarian, Danish, Dutch, English, Finnish, French, Greek, Hebrew, Norwegian, Portuguese-BR, Spanish, Swedish, Turkish, Vietnamese\nLanguage                         : English\nEncoded By                       : PsychoLogic\nSample Included                  : Yes\n\nMovie Information                : http://www.imdb.com/title/tt0317219/\nGenre                            : Animation | Adventure | Comedy \nDirectors                        : John Lasseter, Joe Ranft\nCast                             : Owen Wilson, Bonnie Hunt and Paul Newman\nPlot                             : A hot-shot race-car named Lightning McQueen gets waylaid in Radiator Springs, where he finds the true meaning of friendship and family. \n\nGeneral\nFormat                           : AVI\nFormat/Info                      : Audio Video Interleave\nFormat profile                   : OpenDML\nFile size                        : 2.81 GiB\nDuration                         : 1h 56mn\nOverall bit rate                 : 3 458 Kbps\nWriting application              : VirtualDubMod 1.5.10.2 (build 2542/release)\nWriting library                  : VirtualDubMod build 2542/release\n\nVideo\nID                               : 0\nFormat                           : MPEG-4 Visual\nFormat profile                   : Advanced Simple@L5\nFormat settings, BVOP            : 2\nFormat settings, QPel            : No\nFormat settings, GMC             : No warppoints\nFormat settings, Matrix          : Default (H.263)\nCodec ID                         : XVID\nCodec ID/Hint                    : XviD\nDuration                         : 1h 56mn\nBit rate                         : 2 999 Kbps\nWidth                            : 1 280 pixels\nHeight                           : 528 pixels\nDisplay aspect ratio             : 2.40:1\nFrame rate                       : 23.976 fps\nColor space                      : YUV\nChroma subsampling               : 4:2:0\nBit depth                        : 8 bits\nScan type                        : Progressive\nCompression mode                 : Lossy\nBits/(Pixel*Frame)               : 0.185\nStream size                      : 2.44 GiB (87%)\nWriting library                  : XviD 1.2.1 (UTC 2008-12-04)\n\nAudio\nID                               : 1\nFormat                           : AC-3\nFormat/Info                      : Audio Coding 3\nMode extension                   : CM (complete main)\nCodec ID                         : 2000\nDuration                         : 1h 56mn\nBit rate mode                    : Constant\nBit rate                         : 448 Kbps\nChannel(s)                       : 6 channels\nChannel positions                : Front: L C R, Side: L R, LFE\nSampling rate                    : 48.0 KHz\nBit depth                        : 16 bits\nCompression mode                 : Lossy\nStream size                      : 373 MiB (13%)\nAlignment                        : Split accross interleaves\nInterleave, duration             : 42 ms (1.00 video frame)\nInterleave, preload duration     : 500 ms\n\n","torrent":{"xt":"urn:btih:715a4d3092752c37befc31bad5b119067f0a9b28","amp;dn":"Cars.2006.720p.BRRip.XviD.AC3-PsychoLogic","amp;tr":["udp%3A%2F%2Ftracker.openbittorrent.com%3A80","udp%3A%2F%2Fopen.demonii.com%3A1337","udp%3A%2F%2Ftracker.coppersurfer.tk%3A6969","udp%3A%2F%2Fexodus.desync.com%3A6969"],"infoHash":"715a4d3092752c37befc31bad5b119067f0a9b28","infoHashBuffer":{"type":"Buffer","data":[113,90,77,48,146,117,44,55,190,252,49,186,213,177,25,6,127,10,155,40]},"announce":[],"urlList":[]}}